<?xml version="1.0" encoding="UTF-8" standalone="no"?>
<!DOCTYPE svg PUBLIC "-//W3C//DTD SVG 1.1//EN"
 "http://www.w3.org/Graphics/SVG/1.1/DTD/svg11.dtd">
<!-- Generated by graphviz version 2.28.0 (20110507.0327)
 -->
<!-- Title: G Pages: 1 -->
<svg width="626pt" height="312pt"
 viewBox="0.00 0.00 626.00 312.00" xmlns="http://www.w3.org/2000/svg" xmlns:xlink="http://www.w3.org/1999/xlink">
<g id="graph1" class="graph" transform="scale(1 1) rotate(0) translate(4 308)">
<title>G</title>
<polygon fill="white" stroke="white" points="-4,5 -4,-308 623,-308 623,5 -4,5"/>
<g id="graph2" class="cluster"><title>cluster_global</title>
<polyline fill="none" stroke="gray" points="332,-8 598,-8 "/>
<path fill="none" stroke="gray" d="M598,-8C604,-8 610,-14 610,-20"/>
<polyline fill="none" stroke="gray" points="610,-20 610,-284 "/>
<path fill="none" stroke="gray" d="M610,-284C610,-290 604,-296 598,-296"/>
<polyline fill="none" stroke="gray" points="598,-296 332,-296 "/>
<path fill="none" stroke="gray" d="M332,-296C326,-296 320,-290 320,-284"/>
<polyline fill="none" stroke="gray" points="320,-284 320,-20 "/>
<path fill="none" stroke="gray" d="M320,-20C320,-14 326,-8 332,-8"/>
<text text-anchor="middle" x="465" y="-283.2" font-family="Times New Roman,serif" font-size="11.00" fill="gray">global</text>
</g>
<!-- \\backup_ejsapp_activity_task -->
<g id="node2" class="node"><title>\\backup_ejsapp_activity_task</title>
<a xlink:href="backup.moodle2.backup_ejsapp_activity_task.class.html" xlink:title="backup_ejsapp_activity_task" target="_parent">
<polygon fill="none" stroke="black" points="564.5,-268 365.5,-268 365.5,-232 564.5,-232 564.5,-268"/>
<text text-anchor="middle" x="465" y="-247.2" font-family="Courier,monospace" font-size="11.00">backup_ejsapp_activity_task</text>
</a>
</g>
<!-- \\backup_activity_task -->
<g id="node8" class="node"><title>\\backup_activity_task</title>
<ellipse fill="none" stroke="black" cx="128" cy="-250" rx="90.1842" ry="18"/>
<text text-anchor="middle" x="128" y="-246.3" font-family="Times New Roman,serif" font-size="14.00" fill="gray">\backup_activity_task</text>
</g>
<!-- \\backup_ejsapp_activity_task&#45;&gt;\\backup_activity_task -->
<g id="edge3" class="edge"><title>\\backup_ejsapp_activity_task&#45;&gt;\\backup_activity_task</title>
<path fill="none" stroke="black" d="M365.301,-250C322.24,-250 271.836,-250 228.666,-250"/>
<polygon fill="none" stroke="black" points="228.43,-246.5 218.43,-250 228.43,-253.5 228.43,-246.5"/>
</g>
<!-- \\backup_ejsapp_activity_structure_step -->
<g id="node3" class="node"><title>\\backup_ejsapp_activity_structure_step</title>
<a xlink:href="backup.moodle2.backup_ejsapp_stepslib.html" xlink:title="backup_ejsapp_activity_structure_step" target="_parent">
<polygon fill="none" stroke="black" points="598,-214 332,-214 332,-178 598,-178 598,-214"/>
<text text-anchor="middle" x="465" y="-193.2" font-family="Courier,monospace" font-size="11.00">backup_ejsapp_activity_structure_step</text>
</a>
</g>
<!-- \\backup_activity_structure_step -->
<g id="node10" class="node"><title>\\backup_activity_structure_step</title>
<ellipse fill="none" stroke="black" cx="128" cy="-196" rx="127.277" ry="18"/>
<text text-anchor="middle" x="128" y="-192.3" font-family="Times New Roman,serif" font-size="14.00" fill="gray">\backup_activity_structure_step</text>
</g>
<!-- \\backup_ejsapp_activity_structure_step&#45;&gt;\\backup_activity_structure_step -->
<g id="edge5" class="edge"><title>\\backup_ejsapp_activity_structure_step&#45;&gt;\\backup_activity_structure_step</title>
<path fill="none" stroke="black" d="M331.599,-196C309.969,-196 287.522,-196 265.788,-196"/>
<polygon fill="none" stroke="black" points="265.522,-192.5 255.522,-196 265.522,-199.5 265.522,-192.5"/>
</g>
<!-- \\restore_ejsapp_activity_task -->
<g id="node4" class="node"><title>\\restore_ejsapp_activity_task</title>
<a xlink:href="backup.moodle2.restore_ejsapp_activity_task.class.html" xlink:title="restore_ejsapp_activity_task" target="_parent">
<polygon fill="none" stroke="black" points="568,-160 362,-160 362,-124 568,-124 568,-160"/>
<text text-anchor="middle" x="465" y="-139.2" font-family="Courier,monospace" font-size="11.00">restore_ejsapp_activity_task</text>
</a>
</g>
<!-- \\restore_activity_task -->
<g id="node12" class="node"><title>\\restore_activity_task</title>
<ellipse fill="none" stroke="black" cx="128" cy="-142" rx="88.2844" ry="18"/>
<text text-anchor="middle" x="128" y="-138.3" font-family="Times New Roman,serif" font-size="14.00" fill="gray">\restore_activity_task</text>
</g>
<!-- \\restore_ejsapp_activity_task&#45;&gt;\\restore_activity_task -->
<g id="edge7" class="edge"><title>\\restore_ejsapp_activity_task&#45;&gt;\\restore_activity_task</title>
<path fill="none" stroke="black" d="M361.669,-142C318.738,-142 269.041,-142 226.626,-142"/>
<polygon fill="none" stroke="black" points="226.573,-138.5 216.573,-142 226.573,-145.5 226.573,-138.5"/>
</g>
<!-- \\restore_ejsapp_activity_structure_step -->
<g id="node5" class="node"><title>\\restore_ejsapp_activity_structure_step</title>
<a xlink:href="backup.moodle2.restore_ejsapp_stepslib.html" xlink:title="restore_ejsapp_activity_structure_step" target="_parent">
<polygon fill="none" stroke="black" points="601.5,-106 328.5,-106 328.5,-70 601.5,-70 601.5,-106"/>
<text text-anchor="middle" x="465" y="-85.2" font-family="Courier,monospace" font-size="11.00">restore_ejsapp_activity_structure_step</text>
</a>
</g>
<!-- \\restore_activity_structure_step -->
<g id="node14" class="node"><title>\\restore_activity_structure_step</title>
<ellipse fill="none" stroke="black" cx="128" cy="-88" rx="125.378" ry="18"/>
<text text-anchor="middle" x="128" y="-84.3" font-family="Times New Roman,serif" font-size="14.00" fill="gray">\restore_activity_structure_step</text>
</g>
<!-- \\restore_ejsapp_activity_structure_step&#45;&gt;\\restore_activity_structure_step -->
<g id="edge9" class="edge"><title>\\restore_ejsapp_activity_structure_step&#45;&gt;\\restore_activity_structure_step</title>
<path fill="none" stroke="black" d="M328.226,-88C306.932,-88 284.928,-88 263.659,-88"/>
<polygon fill="none" stroke="black" points="263.615,-84.5001 253.615,-88 263.615,-91.5001 263.615,-84.5001"/>
</g>
<!-- \\mod_ejsapp_mod_form -->
<g id="node6" class="node"><title>\\mod_ejsapp_mod_form</title>
<a xlink:href="mod_form.html" xlink:title="mod_ejsapp_mod_form" target="_parent">
<polygon fill="none" stroke="black" points="537.5,-52 392.5,-52 392.5,-16 537.5,-16 537.5,-52"/>
<text text-anchor="middle" x="465" y="-31.2" font-family="Courier,monospace" font-size="11.00">mod_ejsapp_mod_form</text>
</a>
</g>
<!-- \\moodleform_mod -->
<g id="node16" class="node"><title>\\moodleform_mod</title>
<ellipse fill="none" stroke="black" cx="128" cy="-34" rx="79.0865" ry="18"/>
<text text-anchor="middle" x="128" y="-30.3" font-family="Times New Roman,serif" font-size="14.00" fill="gray">\moodleform_mod</text>
</g>
<!-- \\mod_ejsapp_mod_form&#45;&gt;\\moodleform_mod -->
<g id="edge11" class="edge"><title>\\mod_ejsapp_mod_form&#45;&gt;\\moodleform_mod</title>
<path fill="none" stroke="black" d="M392.134,-34C341.005,-34 271.996,-34 217.478,-34"/>
<polygon fill="none" stroke="black" points="217.474,-30.5001 207.474,-34 217.474,-37.5001 217.474,-30.5001"/>
</g>
</g>
</svg>
