<?xml version="1.0" encoding="utf-8"?>
<!-- Generator: Adobe Illustrator 13.0.1, SVG Export Plug-In . SVG Version: 6.00 Build 14948)  -->
<!DOCTYPE svg PUBLIC "-//W3C//DTD SVG 1.1//EN" "http://www.w3.org/Graphics/SVG/1.1/DTD/svg11.dtd" [
	<!ENTITY st0 "fill:#FFFFFF;">
	<!ENTITY st1 "fill:#00563F;">
]>
<svg version="1.1" id="Capa_1" xmlns="http://www.w3.org/2000/svg" xmlns:xlink="http://www.w3.org/1999/xlink" x="0px" y="0px"
	 width="24px" height="24px" viewBox="0 0 24 24" style="enable-background:new 0 0 24 24;" xml:space="preserve">
<rect x="-0.5" y="-0.5" style="&st1;" width="24" height="24"/>
<g>
	<g id="XMLID_2_">
		<g>
			<polygon style="&st0;" points="9.2,18 9.2,20.8 0.8,20.8 0.8,-0.6 4,-0.6 4,18 			"/>
		</g>
	</g>
</g>
<g>
	<g id="XMLID_1_">
		<g>
			<path style="&st0;" d="M19.2,6.5c2,0,3.1,2.1,3.1,4.9c0,3.5-1.6,5.3-3.4,5.3c-1.1,0-1.8-0.4-2.3-1.5h-0.1l-0.1,1.4h-1.6
				c0-0.8,0.1-1.9,0.1-2.7V2.3h1.9V8h0.1C17.2,7,18.1,6.5,19.2,6.5z M20.4,11.6c0-2-0.7-3.5-2-3.5c-1.1,0-1.8,1.3-1.8,2.3V13
				c0,0.7,0.5,2.2,1.8,2.2C19.8,15.2,20.4,13.7,20.4,11.6z"/>
			<path style="&st0;" d="M13.1,16.7h-1.7l-0.2-1.3l0,0c-0.5,0.8-1.4,1.4-2.7,1.4c-1.7,0-2.7-1.3-2.7-2.9c0-2.5,2.2-3.7,5.3-3.7
				c0-0.5,0-2.3-1.9-2.3c-0.9,0-1.6,0.3-2.3,0.7L6.4,7.3c0.7-0.5,1.9-0.8,3-0.8c3,0,3.5,2.2,3.5,4.1v3.7C12.9,15.1,13,16,13.1,16.7z
				 M11.1,13.5v-2c-1.5,0-3.5,0.4-3.5,2.2c0,1.2,0.8,1.7,1.4,1.7C10.2,15.4,11.1,14.5,11.1,13.5z"/>
		</g>
	</g>
</g>
</svg>
