<?xml version="1.0" encoding="UTF-8" standalone="no"?>
<!DOCTYPE svg PUBLIC "-//W3C//DTD SVG 1.1//EN"
 "http://www.w3.org/Graphics/SVG/1.1/DTD/svg11.dtd">
<!-- Generated by graphviz version 2.38.0 (20140413.2041)
 -->
<!-- Title: G Pages: 1 -->
<svg width="748pt" height="908pt"
 viewBox="0.00 0.00 748.47 908.00" xmlns="http://www.w3.org/2000/svg" xmlns:xlink="http://www.w3.org/1999/xlink">
<g id="graph0" class="graph" transform="scale(1 1) rotate(0) translate(4 904)">
<title>G</title>
<polygon fill="white" stroke="none" points="-4,4 -4,-904 744.467,-904 744.467,4 -4,4"/>
<g id="clust1" class="cluster"><title>cluster_Global</title>
<path fill="none" stroke="gray" d="M450.467,-8C450.467,-8 720.467,-8 720.467,-8 726.467,-8 732.467,-14 732.467,-20 732.467,-20 732.467,-880 732.467,-880 732.467,-886 726.467,-892 720.467,-892 720.467,-892 450.467,-892 450.467,-892 444.467,-892 438.467,-886 438.467,-880 438.467,-880 438.467,-20 438.467,-20 438.467,-14 444.467,-8 450.467,-8"/>
<text text-anchor="middle" x="585.467" y="-879.2" font-family="Times New Roman,serif" font-size="11.00" fill="gray">Global</text>
</g>
<g id="clust2" class="cluster"><title>cluster_\mod_ejsapp</title>
<path fill="none" stroke="gray" d="M458.467,-332C458.467,-332 712.467,-332 712.467,-332 718.467,-332 724.467,-338 724.467,-344 724.467,-344 724.467,-852 724.467,-852 724.467,-858 718.467,-864 712.467,-864 712.467,-864 458.467,-864 458.467,-864 452.467,-864 446.467,-858 446.467,-852 446.467,-852 446.467,-344 446.467,-344 446.467,-338 452.467,-332 458.467,-332"/>
<text text-anchor="middle" x="585.467" y="-851.2" font-family="Times New Roman,serif" font-size="11.00" fill="gray">mod_ejsapp</text>
</g>
<g id="clust3" class="cluster"><title>cluster_\mod_ejsapp\event</title>
<path fill="none" stroke="gray" d="M466.467,-386C466.467,-386 704.467,-386 704.467,-386 710.467,-386 716.467,-392 716.467,-398 716.467,-398 716.467,-824 716.467,-824 716.467,-830 710.467,-836 704.467,-836 704.467,-836 466.467,-836 466.467,-836 460.467,-836 454.467,-830 454.467,-824 454.467,-824 454.467,-398 454.467,-398 454.467,-392 460.467,-386 466.467,-386"/>
<text text-anchor="middle" x="585.467" y="-823.2" font-family="Times New Roman,serif" font-size="11.00" fill="gray">event</text>
</g>
<!-- \\mod_ejsapp\\event\\course_module_working -->
<g id="node1" class="node"><title>\\mod_ejsapp\\event\\course_module_working</title>
<polygon fill="none" stroke="black" points="664.467,-754 506.467,-754 506.467,-718 664.467,-718 664.467,-754"/>
<text text-anchor="middle" x="585.467" y="-733.2" font-family="Courier,monospace" font-size="11.00">course_module_working</text>
</g>
<!-- \\core\\event\\base -->
<g id="node16" class="node"><title>\\core\\event\\base</title>
<ellipse fill="none" stroke="black" cx="188.483" cy="-628" rx="69.5877" ry="18"/>
<text text-anchor="middle" x="188.483" y="-624.3" font-family="Times New Roman,serif" font-size="14.00" fill="gray">\core\event\base</text>
</g>
<!-- \\mod_ejsapp\\event\\course_module_working&#45;&gt;\\core\\event\\base -->
<g id="edge1" class="edge"><title>\\mod_ejsapp\\event\\course_module_working&#45;&gt;\\core\\event\\base</title>
<path fill="none" stroke="black" d="M506.389,-723.522C484.301,-719.462 460.328,-714.552 438.467,-709 368.043,-691.116 288.494,-663.986 238.67,-646.129"/>
<polygon fill="none" stroke="black" points="239.708,-642.783 229.113,-642.687 237.336,-649.368 239.708,-642.783"/>
</g>
<!-- \\mod_ejsapp\\event\\course_module_instance_list_viewed -->
<g id="node2" class="node"><title>\\mod_ejsapp\\event\\course_module_instance_list_viewed</title>
<polygon fill="none" stroke="black" points="708.467,-430 462.467,-430 462.467,-394 708.467,-394 708.467,-430"/>
<text text-anchor="middle" x="585.467" y="-409.2" font-family="Courier,monospace" font-size="11.00">course_module_instance_list_viewed</text>
</g>
<!-- \\core\\event\\course_module_instance_list_viewed -->
<g id="node17" class="node"><title>\\core\\event\\course_module_instance_list_viewed</title>
<ellipse fill="none" stroke="black" cx="188.483" cy="-412" rx="188.467" ry="18"/>
<text text-anchor="middle" x="188.483" y="-408.3" font-family="Times New Roman,serif" font-size="14.00" fill="gray">\core\event\course_module_instance_list_viewed</text>
</g>
<!-- \\mod_ejsapp\\event\\course_module_instance_list_viewed&#45;&gt;\\core\\event\\course_module_instance_list_viewed -->
<g id="edge2" class="edge"><title>\\mod_ejsapp\\event\\course_module_instance_list_viewed&#45;&gt;\\core\\event\\course_module_instance_list_viewed</title>
<path fill="none" stroke="black" d="M462.466,-412C438.559,-412 412.914,-412 387.262,-412"/>
<polygon fill="none" stroke="black" points="387.051,-408.5 377.051,-412 387.051,-415.5 387.051,-408.5"/>
</g>
<!-- \\mod_ejsapp\\event\\course_module_book -->
<g id="node3" class="node"><title>\\mod_ejsapp\\event\\course_module_book</title>
<polygon fill="none" stroke="black" points="654.467,-700 516.467,-700 516.467,-664 654.467,-664 654.467,-700"/>
<text text-anchor="middle" x="585.467" y="-679.2" font-family="Courier,monospace" font-size="11.00">course_module_book</text>
</g>
<!-- \\mod_ejsapp\\event\\course_module_book&#45;&gt;\\core\\event\\base -->
<g id="edge6" class="edge"><title>\\mod_ejsapp\\event\\course_module_book&#45;&gt;\\core\\event\\base</title>
<path fill="none" stroke="black" d="M516.117,-672.656C444.523,-662.868 332.607,-647.567 260.156,-637.662"/>
<polygon fill="none" stroke="black" points="260.585,-634.188 250.203,-636.301 259.636,-641.124 260.585,-634.188"/>
</g>
<!-- \\mod_ejsapp\\event\\course_module_collab -->
<g id="node4" class="node"><title>\\mod_ejsapp\\event\\course_module_collab</title>
<polygon fill="none" stroke="black" points="661.467,-646 509.467,-646 509.467,-610 661.467,-610 661.467,-646"/>
<text text-anchor="middle" x="585.467" y="-625.2" font-family="Courier,monospace" font-size="11.00">course_module_collab</text>
</g>
<!-- \\mod_ejsapp\\event\\course_module_collab&#45;&gt;\\core\\event\\base -->
<g id="edge7" class="edge"><title>\\mod_ejsapp\\event\\course_module_collab&#45;&gt;\\core\\event\\base</title>
<path fill="none" stroke="black" d="M509.244,-628C440.229,-628 338.371,-628 268.258,-628"/>
<polygon fill="none" stroke="black" points="268.151,-624.5 258.151,-628 268.151,-631.5 268.151,-624.5"/>
</g>
<!-- \\mod_ejsapp\\event\\course_module_viewed -->
<g id="node5" class="node"><title>\\mod_ejsapp\\event\\course_module_viewed</title>
<polygon fill="none" stroke="black" points="661.467,-592 509.467,-592 509.467,-556 661.467,-556 661.467,-592"/>
<text text-anchor="middle" x="585.467" y="-571.2" font-family="Courier,monospace" font-size="11.00">course_module_viewed</text>
</g>
<!-- \\mod_ejsapp\\event\\course_module_viewed&#45;&gt;\\core\\event\\base -->
<g id="edge8" class="edge"><title>\\mod_ejsapp\\event\\course_module_viewed&#45;&gt;\\core\\event\\base</title>
<path fill="none" stroke="black" d="M509.244,-584.284C437.562,-594.084 330.451,-608.728 260.276,-618.322"/>
<polygon fill="none" stroke="black" points="259.633,-614.877 250.199,-619.699 260.581,-621.812 259.633,-614.877"/>
</g>
<!-- \\mod_ejsapp\\event\\course_module_wait -->
<g id="node6" class="node"><title>\\mod_ejsapp\\event\\course_module_wait</title>
<polygon fill="none" stroke="black" points="654.467,-538 516.467,-538 516.467,-502 654.467,-502 654.467,-538"/>
<text text-anchor="middle" x="585.467" y="-517.2" font-family="Courier,monospace" font-size="11.00">course_module_wait</text>
</g>
<!-- \\mod_ejsapp\\event\\course_module_wait&#45;&gt;\\core\\event\\base -->
<g id="edge9" class="edge"><title>\\mod_ejsapp\\event\\course_module_wait&#45;&gt;\\core\\event\\base</title>
<path fill="none" stroke="black" d="M516.463,-530.661C491.749,-535.037 463.7,-540.592 438.467,-547 368.043,-564.884 288.494,-592.014 238.67,-609.871"/>
<polygon fill="none" stroke="black" points="237.336,-606.632 229.113,-613.313 239.708,-613.217 237.336,-606.632"/>
</g>
<!-- \\mod_ejsapp\\event\\course_module_booked -->
<g id="node7" class="node"><title>\\mod_ejsapp\\event\\course_module_booked</title>
<polygon fill="none" stroke="black" points="661.467,-484 509.467,-484 509.467,-448 661.467,-448 661.467,-484"/>
<text text-anchor="middle" x="585.467" y="-463.2" font-family="Courier,monospace" font-size="11.00">course_module_booked</text>
</g>
<!-- \\mod_ejsapp\\event\\course_module_booked&#45;&gt;\\core\\event\\base -->
<g id="edge10" class="edge"><title>\\mod_ejsapp\\event\\course_module_booked&#45;&gt;\\core\\event\\base</title>
<path fill="none" stroke="black" d="M509.385,-475.246C486.243,-479.322 460.947,-485.052 438.467,-493 356.371,-522.027 268.712,-575.494 222.471,-605.699"/>
<polygon fill="none" stroke="black" points="220.487,-602.815 214.059,-611.237 224.336,-608.662 220.487,-602.815"/>
</g>
<!-- \\mod_ejsapp\\event\\course_module_inactive -->
<g id="node8" class="node"><title>\\mod_ejsapp\\event\\course_module_inactive</title>
<polygon fill="none" stroke="black" points="667.967,-808 502.967,-808 502.967,-772 667.967,-772 667.967,-808"/>
<text text-anchor="middle" x="585.467" y="-787.2" font-family="Courier,monospace" font-size="11.00">course_module_inactive</text>
</g>
<!-- \\mod_ejsapp\\event\\course_module_inactive&#45;&gt;\\core\\event\\base -->
<g id="edge11" class="edge"><title>\\mod_ejsapp\\event\\course_module_inactive&#45;&gt;\\core\\event\\base</title>
<path fill="none" stroke="black" d="M502.954,-779.588C481.617,-775.606 458.881,-770.218 438.467,-763 356.371,-733.973 268.712,-680.506 222.471,-650.301"/>
<polygon fill="none" stroke="black" points="224.336,-647.338 214.059,-644.763 220.487,-653.185 224.336,-647.338"/>
</g>
<!-- \\mod_ejsapp\\observers -->
<g id="node9" class="node"><title>\\mod_ejsapp\\observers</title>
<polygon fill="none" stroke="black" points="623.967,-376 546.967,-376 546.967,-340 623.967,-340 623.967,-376"/>
<text text-anchor="middle" x="585.467" y="-355.2" font-family="Courier,monospace" font-size="11.00">observers</text>
</g>
<!-- \\backup_ejsapp_activity_structure_step -->
<g id="node10" class="node"><title>\\backup_ejsapp_activity_structure_step</title>
<polygon fill="none" stroke="black" points="718.467,-322 452.467,-322 452.467,-286 718.467,-286 718.467,-322"/>
<text text-anchor="middle" x="585.467" y="-301.2" font-family="Courier,monospace" font-size="11.00">backup_ejsapp_activity_structure_step</text>
</g>
<!-- \\backup_activity_structure_step -->
<g id="node18" class="node"><title>\\backup_activity_structure_step</title>
<ellipse fill="none" stroke="black" cx="188.483" cy="-304" rx="127.277" ry="18"/>
<text text-anchor="middle" x="188.483" y="-300.3" font-family="Times New Roman,serif" font-size="14.00" fill="gray">\backup_activity_structure_step</text>
</g>
<!-- \\backup_ejsapp_activity_structure_step&#45;&gt;\\backup_activity_structure_step -->
<g id="edge3" class="edge"><title>\\backup_ejsapp_activity_structure_step&#45;&gt;\\backup_activity_structure_step</title>
<path fill="none" stroke="black" d="M452.394,-304C411.786,-304 367.018,-304 326.111,-304"/>
<polygon fill="none" stroke="black" points="326.076,-300.5 316.076,-304 326.075,-307.5 326.076,-300.5"/>
</g>
<!-- \\mod_ejsapp_mod_form -->
<g id="node11" class="node"><title>\\mod_ejsapp_mod_form</title>
<polygon fill="none" stroke="black" points="657.967,-268 512.967,-268 512.967,-232 657.967,-232 657.967,-268"/>
<text text-anchor="middle" x="585.467" y="-247.2" font-family="Courier,monospace" font-size="11.00">mod_ejsapp_mod_form</text>
</g>
<!-- \\moodleform_mod -->
<g id="node19" class="node"><title>\\moodleform_mod</title>
<ellipse fill="none" stroke="black" cx="188.483" cy="-250" rx="79.0865" ry="18"/>
<text text-anchor="middle" x="188.483" y="-246.3" font-family="Times New Roman,serif" font-size="14.00" fill="gray">\moodleform_mod</text>
</g>
<!-- \\mod_ejsapp_mod_form&#45;&gt;\\moodleform_mod -->
<g id="edge4" class="edge"><title>\\mod_ejsapp_mod_form&#45;&gt;\\moodleform_mod</title>
<path fill="none" stroke="black" d="M512.938,-250C447.04,-250 349.029,-250 278.176,-250"/>
<polygon fill="none" stroke="black" points="277.927,-246.5 267.927,-250 277.927,-253.5 277.927,-246.5"/>
</g>
<!-- \\backup_ejsapp_activity_task -->
<g id="node12" class="node"><title>\\backup_ejsapp_activity_task</title>
<polygon fill="none" stroke="black" points="684.967,-214 485.967,-214 485.967,-178 684.967,-178 684.967,-214"/>
<text text-anchor="middle" x="585.467" y="-193.2" font-family="Courier,monospace" font-size="11.00">backup_ejsapp_activity_task</text>
</g>
<!-- \\backup_activity_task -->
<g id="node20" class="node"><title>\\backup_activity_task</title>
<ellipse fill="none" stroke="black" cx="188.483" cy="-196" rx="90.1842" ry="18"/>
<text text-anchor="middle" x="188.483" y="-192.3" font-family="Times New Roman,serif" font-size="14.00" fill="gray">\backup_activity_task</text>
</g>
<!-- \\backup_ejsapp_activity_task&#45;&gt;\\backup_activity_task -->
<g id="edge5" class="edge"><title>\\backup_ejsapp_activity_task&#45;&gt;\\backup_activity_task</title>
<path fill="none" stroke="black" d="M485.814,-196C425.874,-196 349.566,-196 289.398,-196"/>
<polygon fill="none" stroke="black" points="289.124,-192.5 279.124,-196 289.124,-199.5 289.124,-192.5"/>
</g>
<!-- \\MCrypt -->
<g id="node13" class="node"><title>\\MCrypt</title>
<polygon fill="none" stroke="black" points="613.967,-160 556.967,-160 556.967,-124 613.967,-124 613.967,-160"/>
<text text-anchor="middle" x="585.467" y="-139.2" font-family="Courier,monospace" font-size="11.00">MCrypt</text>
</g>
<!-- \\restore_ejsapp_activity_structure_step -->
<g id="node14" class="node"><title>\\restore_ejsapp_activity_structure_step</title>
<polygon fill="none" stroke="black" points="721.967,-106 448.967,-106 448.967,-70 721.967,-70 721.967,-106"/>
<text text-anchor="middle" x="585.467" y="-85.2" font-family="Courier,monospace" font-size="11.00">restore_ejsapp_activity_structure_step</text>
</g>
<!-- \\restore_activity_structure_step -->
<g id="node21" class="node"><title>\\restore_activity_structure_step</title>
<ellipse fill="none" stroke="black" cx="188.483" cy="-88" rx="125.378" ry="18"/>
<text text-anchor="middle" x="188.483" y="-84.3" font-family="Times New Roman,serif" font-size="14.00" fill="gray">\restore_activity_structure_step</text>
</g>
<!-- \\restore_ejsapp_activity_structure_step&#45;&gt;\\restore_activity_structure_step -->
<g id="edge12" class="edge"><title>\\restore_ejsapp_activity_structure_step&#45;&gt;\\restore_activity_structure_step</title>
<path fill="none" stroke="black" d="M448.812,-88C408.579,-88 364.537,-88 324.354,-88"/>
<polygon fill="none" stroke="black" points="324.226,-84.5001 314.226,-88 324.226,-91.5001 324.226,-84.5001"/>
</g>
<!-- \\restore_ejsapp_activity_task -->
<g id="node15" class="node"><title>\\restore_ejsapp_activity_task</title>
<polygon fill="none" stroke="black" points="688.467,-52 482.467,-52 482.467,-16 688.467,-16 688.467,-52"/>
<text text-anchor="middle" x="585.467" y="-31.2" font-family="Courier,monospace" font-size="11.00">restore_ejsapp_activity_task</text>
</g>
<!-- \\restore_activity_task -->
<g id="node22" class="node"><title>\\restore_activity_task</title>
<ellipse fill="none" stroke="black" cx="188.483" cy="-34" rx="88.2844" ry="18"/>
<text text-anchor="middle" x="188.483" y="-30.3" font-family="Times New Roman,serif" font-size="14.00" fill="gray">\restore_activity_task</text>
</g>
<!-- \\restore_ejsapp_activity_task&#45;&gt;\\restore_activity_task -->
<g id="edge13" class="edge"><title>\\restore_ejsapp_activity_task&#45;&gt;\\restore_activity_task</title>
<path fill="none" stroke="black" d="M482.235,-34C422.057,-34 346.363,-34 287.02,-34"/>
<polygon fill="none" stroke="black" points="286.891,-30.5001 276.891,-34 286.891,-37.5001 286.891,-30.5001"/>
</g>
</g>
</svg>
